<svg xmlns="http://www.w3.org/2000/svg" xmlns:xlink="http://www.w3.org/1999/xlink" width="250" height="172.582" viewBox="0 0 250 172.582"><defs><style>.a,.b{fill:#7b65e4;}.a{opacity:0.43;}.c{fill:#444053;}.d{fill:#464646;}.e{fill:#fff;}.f{fill:#fa5959;}.f,.g,.h{opacity:0.8;}.g{fill:#fed253;}.h{fill:#8ccf4d;}.i{opacity:0.05;}.j{fill:url(#a);}.k{fill:#fbbebe;}.l{fill:#3f3d56;}.m,.o{opacity:0.1;}.n{fill:#33313f;}</style><linearGradient id="a" y1="0.5" x2="1" y2="0.5" gradientUnits="objectBoundingBox"><stop offset="0" stop-color="gray" stop-opacity="0.251"/><stop offset="0.54" stop-color="gray" stop-opacity="0.122"/><stop offset="1" stop-color="gray" stop-opacity="0.102"/></linearGradient></defs><g transform="translate(0 0.006)"><path class="a" d="M158.317,70.953c-16.025.021-31.449-4.521-46.2-9.568s-29.393-10.7-45.12-13.092c-10.114-1.539-21.616-1.4-29.522,4.191-7.61,5.377-9.814,14.275-10.877,22.5-.8,6.185-1.168,12.676,1.826,18.333,2.079,3.927,5.638,7.164,8.146,10.907,8.755,13.021,3.49,29.655-5.019,42.978-3.99,6.251-8.663,12.243-11.679,18.852s-4.253,14.1-1.177,20.627c3.048,6.466,9.934,11.158,17.324,14.363,15.006,6.521,32.478,7.919,49.48,8.457,37.636,1.194,75.345-1.241,112.953-3.677,13.917-.9,27.9-1.807,41.527-4.416,7.567-1.447,15.36-3.6,20.726-8.3,6.811-5.977,8.2-15.735,3.248-22.75-8.311-11.765-30.227-13.984-36.187-26.713-3.286-7.008-.452-15.045,3.722-21.8,8.952-14.494,24.362-27.477,24.621-43.688.178-11.133-7.835-21.993-19.8-26.831-12.545-5.068-29.65-3.764-38.44,5.681C188.825,66.734,172.466,70.938,158.317,70.953Z" transform="translate(-16.91 -47.46)"/><path class="b" d="M990.216,689.354a5.827,5.827,0,0,0-5.246-.5s.8,1.548,4.109,1.4Z" transform="translate(-777.441 -551.009)"/><path class="b" d="M1004.6,693.25a5.825,5.825,0,0,1-1.209,5.13s-1.209-1.258,0-4.341Z" transform="translate(-791.491 -554.813)"/><path class="b" d="M1004.078,672.582s-.2-2.6-6.058-1.734a2.8,2.8,0,0,0,2.03,2.467A3.386,3.386,0,0,0,1004.078,672.582Z" transform="translate(-787.694 -537.075)"/><path class="b" d="M1021.7,679.5s2.478.8.268,6.294a2.8,2.8,0,0,1-1.929-2.553A3.362,3.362,0,0,1,1021.7,679.5Z" transform="translate(-804.947 -544.01)"/><path class="b" d="M1022.682,648.15s.337-4.273-5.655-3.835c0,0-.429,3.859,4.6,4.862Z" transform="translate(-802.618 -516.343)"/><path class="b" d="M1036.951,626.376s-.821-4.843-6.811-3.4c0,0-.021,4.187,5.833,4.553Z" transform="translate(-812.928 -499.393)"/><path class="b" d="M1048.62,603.481s-1.376-4.716-7.31-3.306c0,0,1.413,4.242,6.916,4.176Z" transform="translate(-821.703 -481.484)"/><path class="b" d="M1062.3,580.268s-1.344-4.894-7.074-3.43c0,0,1.912,4.65,6.695,4.258Z" transform="translate(-832.639 -463.142)"/><path class="b" d="M1073.125,554.479s-1.033-5.985-6.375-4.661c0,0,1.552,5.445,5.983,5.533Z" transform="translate(-841.689 -441.979)"/><path class="b" d="M1079.886,529.316s-1.241-6.033-6.646-4.287c0,0,2.118,5.7,6.262,5.113Z" transform="translate(-846.788 -422.405)"/><path class="b" d="M1086.468,500.4s-1.97-6.035-6.148-5.872c0,0,2.013,6.373,5.8,7.074Z" transform="translate(-852.35 -398.69)"/><path class="b" d="M1091.764,473.571s-2.144-7.263-5.544-6.7c0,0,1.483,5.552,5.424,7.835Z" transform="translate(-856.986 -376.937)"/><path class="b" d="M1094.179,446.934s-2.011-6.052-5.359-6.294c0,0,1.368,5.955,5.293,7.868Z" transform="translate(-859.028 -356.356)"/><path class="b" d="M1098.426,420.935s-2.506-6.058-4.716-6.2c0,0,1.089,5.966,4.5,7.19Z" transform="translate(-862.87 -336.009)"/><path class="b" d="M1103.236,393.006s-1.542-6.579-3.756-7.126c0,0,.3,5.383,3.533,7.619Z" transform="translate(-867.403 -313.336)"/><path class="b" d="M1108.385,364.845s-1.621-5.246-3.415-6.045c0,0,.354,6.185,3,7.327Z" transform="translate(-871.716 -292.061)"/><path class="b" d="M1119.186,332.108l.326-9.248s-3.355,6.971-.568,10.871Z" transform="translate(-881.825 -263.826)"/><path class="b" d="M1131.427,296.96s2.416-6.753,3-7.13c0,0-4.738,4.382-4.275,10.018Z" transform="translate(-891.475 -237.876)"/><path class="b" d="M1040.641,662.12s4.249-.555,4.122,5.45c0,0-3.839.626-5.094-4.341Z" transform="translate(-820.415 -530.346)"/><path class="b" d="M1059.26,639.06s4.909-.015,4.5,6.131c0,0-4.122.737-5.482-4.969Z" transform="translate(-835.035 -512.24)"/><path class="b" d="M1074.184,616.95s4.457-2.09,7.308,3.306c0,0-4.116,1.741-7.7-2.433Z" transform="translate(-847.22 -494.557)"/><path class="b" d="M1087.307,592.344s4.564-2.223,7.244,3.046c0,0-4.755,1.638-7.621-2.212Z" transform="translate(-857.543 -475.173)"/><path class="b" d="M1095.481,566.088s4.392-4.2,7.9.047c0,0-4.487,3.454-8.1.888Z" transform="translate(-864.103 -453.457)"/><path class="b" d="M1102.5,538.746s4.418-4.287,7.9.2c0,0-4.958,3.522-8.054.7Z" transform="translate(-869.65 -431.979)"/><path class="b" d="M1106.93,505.235s3.4-5.359,7.413-4.163c0,0-3.533,5.675-7.375,5.422Z" transform="translate(-873.256 -403.696)"/><path class="b" d="M1111.288,477.16s3.43-6.749,6.676-5.574c0,0-2.474,5.188-6.763,6.712Z" transform="translate(-876.61 -380.561)"/><path class="b" d="M1111.463,451.071s3.526-5.312,6.83-4.663c0,0-2.883,5.387-7.173,6.2Z" transform="translate(-876.548 -360.845)"/><path class="b" d="M1114,421.093s2.733-5.962,4.954-6c0,0-1.312,5.919-4.77,7.014Z" transform="translate(-878.81 -336.284)"/><path class="b" d="M1116.5,396.35s3.038-6.037,5.321-6.05c0,0-1.554,5.162-5.22,6.579Z" transform="translate(-880.774 -316.808)"/><path class="b" d="M1118.63,368.381s2.272-4.995,4.155-5.561c0,0-1.136,6.088-3.9,6.886Z" transform="translate(-882.448 -295.219)"/><path class="b" d="M1122.672,336.8l5.078-7.737s-1.3,7.632-5.82,9.218Z" transform="translate(-885.04 -268.696)"/><path class="b" d="M1132.639,308.661s5.9-4.073,6.116-4.731c0,0-3,5.7-8.575,6.712Z" transform="translate(-891.521 -248.954)"/><path class="b" d="M1142.7,293.6s6.776-6.515,8.506-6.508a11.062,11.062,0,0,0-8.669,6.161Z" transform="translate(-901.232 -235.724)"/><path class="c" d="M1118.94,331.74l.247.032c1.273-9.966,3.13-15.864,5.226-16.586l-.082-.236C1122.108,315.722,1120.239,321.529,1118.94,331.74Z" transform="translate(-882.691 -257.611)"/><path class="c" d="M1110.2,414.394l.373.03c.079-.93.139-1.882.18-2.832.356-8.249.907-15.825,1.631-21.5l-.214-.268c-.727,5.692-1.434,13.495-1.79,21.757C1110.339,412.52,1110.279,413.468,1110.2,414.394Z" transform="translate(-875.825 -316.431)"/><path class="c" d="M976.261,546.979a48.555,48.555,0,0,0,13.446-9.953,54.068,54.068,0,0,0,9.829-13.934,63.125,63.125,0,0,0,5.715-21.961l-.388.182c-1.447,17.193-9.274,28.941-15.5,35.34a48.049,48.049,0,0,1-13.306,9.861Z" transform="translate(-770.441 -403.879)"/><path class="d" d="M294.695,132.69H88.705a1.835,1.835,0,0,0-1.835,1.835v5.347H296.53v-5.347A1.835,1.835,0,0,0,294.695,132.69Z" transform="translate(-71.872 -114.423)"/><path class="e" d="M86.87,166.19V286.506a3.7,3.7,0,0,0,3.7,3.7H292.83a3.7,3.7,0,0,0,3.7-3.7V166.19Z" transform="translate(-71.872 -140.742)"/><circle class="f" cx="0.858" cy="0.858" r="0.858" transform="translate(17.461 20.946)"/><circle class="g" cx="0.858" cy="0.858" r="0.858" transform="translate(19.819 20.946)"/><circle class="h" cx="0.858" cy="0.858" r="0.858" transform="translate(22.177 20.946)"/><rect class="i" width="168.5" height="74.093" transform="translate(34.487 45.51)"/><rect class="d" width="165.927" height="72.459" transform="translate(35.773 46.071)"/><path class="b" d="M334.287,349.38a16.507,16.507,0,1,0,16.507,16.507,16.507,16.507,0,0,0-16.507-16.507Zm2.961,16.9V374.1h-5.835v-7.816a4.834,4.834,0,1,1,5.835,0Z" transform="translate(-253.281 -284.66)"/><path class="i" d="M334.287,349.38a16.507,16.507,0,1,0,16.507,16.507,16.507,16.507,0,0,0-16.507-16.507Zm2.961,16.9V374.1h-5.835v-7.816a4.834,4.834,0,1,1,5.835,0Z" transform="translate(-253.281 -284.66)"/><path class="b" d="M317,327.38A21.223,21.223,0,1,0,338.226,348.6,21.223,21.223,0,0,0,317,327.38Zm3.805,21.733v10.048h-7.5V349.113a6.217,6.217,0,1,1,7.5,0Z" transform="translate(-235.997 -267.377)"/><rect class="e" width="68.6" height="7.289" transform="translate(111.019 78.442)"/><rect class="b" width="14.792" height="7.289" transform="translate(164.827 91.733)"/><path class="b" d="M554.888,424.381h-1.241l1.1-1.1a.109.109,0,0,0,0-.152.107.107,0,0,0-.152,0l-1.1,1.1v-1.243a.107.107,0,0,0-.107-.107.109.109,0,0,0-.107.107v1.243l-1.1-1.11a.107.107,0,0,0-.152,0,.109.109,0,0,0,0,.152l1.1,1.1h-1.243a.109.109,0,0,0-.107.107.107.107,0,0,0,.107.107h1.243l-1.1,1.1a.109.109,0,0,0,0,.152.111.111,0,0,0,.152,0l1.1-1.1v1.241a.107.107,0,0,0,.214,0v-1.241l1.1,1.1a.111.111,0,0,0,.152,0,.109.109,0,0,0,0-.152l-1.1-1.1h1.241a.1.1,0,1,0,0-.208Z" transform="translate(-437.117 -342.404)"/><path class="b" d="M575.889,424.381h-1.241l1.1-1.1a.109.109,0,0,0,0-.152.107.107,0,0,0-.152,0l-1.1,1.1v-1.243a.107.107,0,0,0-.107-.107.109.109,0,0,0-.107.107v1.243l-1.1-1.11a.107.107,0,0,0-.152,0,.109.109,0,0,0,0,.152l1.1,1.1h-1.243a.109.109,0,0,0-.107.107.107.107,0,0,0,.107.107h1.243l-1.1,1.1a.109.109,0,0,0,0,.152.111.111,0,0,0,.152,0l1.1-1.1v1.241a.107.107,0,0,0,.214,0v-1.241l1.1,1.1a.111.111,0,0,0,.152,0,.109.109,0,0,0,0-.152l-1.1-1.1h1.241a.1.1,0,1,0,0-.208Z" transform="translate(-453.615 -342.404)"/><path class="b" d="M596.888,424.381h-1.241l1.1-1.1a.109.109,0,0,0,0-.152.107.107,0,0,0-.152,0l-1.1,1.1v-1.243a.107.107,0,0,0-.107-.107.109.109,0,0,0-.107.107v1.243l-1.1-1.11a.107.107,0,0,0-.152,0,.109.109,0,0,0,0,.152l1.1,1.1h-1.243a.109.109,0,0,0-.107.107.107.107,0,0,0,.107.107h1.243l-1.1,1.1a.109.109,0,0,0,0,.152.111.111,0,0,0,.152,0l1.1-1.1v1.241a.107.107,0,0,0,.214,0v-1.241l1.1,1.1a.111.111,0,0,0,.152,0,.109.109,0,0,0,0-.152l-1.1-1.1h1.241a.1.1,0,1,0,0-.208Z" transform="translate(-470.113 -342.404)"/><path class="b" d="M617.888,424.381h-1.241l1.1-1.1a.109.109,0,0,0,0-.152.107.107,0,0,0-.152,0l-1.1,1.1v-1.243a.107.107,0,0,0-.107-.107.109.109,0,0,0-.107.107v1.243l-1.1-1.11a.107.107,0,0,0-.152,0,.109.109,0,0,0,0,.152l1.1,1.1h-1.243a.109.109,0,0,0-.107.107.107.107,0,0,0,.107.107h1.243l-1.1,1.1a.109.109,0,0,0,0,.152.111.111,0,0,0,.152,0l1.1-1.1v1.241a.107.107,0,0,0,.214,0v-1.241l1.1,1.1a.111.111,0,0,0,.152,0,.109.109,0,0,0,0-.152l-1.1-1.1h1.241a.1.1,0,1,0,0-.208Z" transform="translate(-486.611 -342.404)"/><path class="b" d="M638.888,424.381h-1.241l1.1-1.1a.109.109,0,0,0,0-.152.107.107,0,0,0-.152,0l-1.1,1.1v-1.243a.107.107,0,0,0-.107-.107.109.109,0,0,0-.107.107v1.243l-1.1-1.11a.107.107,0,0,0-.152,0,.109.109,0,0,0,0,.152l1.1,1.1h-1.243a.109.109,0,0,0-.107.107.107.107,0,0,0,.107.107h1.243l-1.1,1.1a.109.109,0,0,0,0,.152.111.111,0,0,0,.152,0l1.1-1.1v1.241a.107.107,0,0,0,.214,0v-1.241l1.1,1.1a.111.111,0,0,0,.152,0,.109.109,0,0,0,0-.152l-1.1-1.1h1.241a.1.1,0,1,0,0-.208Z" transform="translate(-503.109 -342.404)"/><path class="b" d="M659.888,424.381h-1.241l1.1-1.1a.109.109,0,0,0,0-.152.107.107,0,0,0-.152,0l-1.1,1.1v-1.243a.107.107,0,0,0-.107-.107.109.109,0,0,0-.107.107v1.243l-1.1-1.11a.107.107,0,0,0-.152,0,.109.109,0,0,0,0,.152l1.1,1.1h-1.243a.109.109,0,0,0-.107.107.107.107,0,0,0,.107.107h1.243l-1.1,1.1a.109.109,0,0,0,0,.152.111.111,0,0,0,.152,0l1.1-1.1v1.241a.107.107,0,0,0,.214,0v-1.241l1.1,1.1a.111.111,0,0,0,.152,0,.109.109,0,0,0,0-.152l-1.1-1.1h1.241a.1.1,0,1,0,0-.208Z" transform="translate(-519.607 -342.404)"/><path class="b" d="M680.888,424.381h-1.241l1.1-1.1a.109.109,0,0,0,0-.152.107.107,0,0,0-.152,0l-1.1,1.1v-1.243a.107.107,0,0,0-.107-.107.109.109,0,0,0-.107.107v1.243l-1.1-1.11a.107.107,0,0,0-.152,0,.109.109,0,0,0,0,.152l1.1,1.1h-1.243a.109.109,0,0,0-.107.107.107.107,0,0,0,.107.107h1.243l-1.1,1.1a.109.109,0,0,0,0,.152.111.111,0,0,0,.152,0l1.1-1.1v1.241a.107.107,0,0,0,.214,0v-1.241l1.1,1.1a.111.111,0,0,0,.152,0,.109.109,0,0,0,0-.152l-1.1-1.1h1.241a.1.1,0,1,0,0-.208Z" transform="translate(-536.105 -342.404)"/><path class="b" d="M701.888,424.381h-1.241l1.1-1.1a.109.109,0,0,0,0-.152.107.107,0,0,0-.152,0l-1.1,1.1v-1.243a.107.107,0,0,0-.107-.107.109.109,0,0,0-.107.107v1.243l-1.1-1.11a.107.107,0,0,0-.152,0,.109.109,0,0,0,0,.152l1.1,1.1h-1.243a.109.109,0,0,0-.107.107.107.107,0,0,0,.107.107h1.243l-1.1,1.1a.109.109,0,0,0,0,.152.111.111,0,0,0,.152,0l1.1-1.1v1.241a.107.107,0,0,0,.214,0v-1.241l1.1,1.1a.111.111,0,0,0,.152,0,.109.109,0,0,0,0-.152l-1.1-1.1h1.241a.1.1,0,1,0,0-.208Z" transform="translate(-552.603 -342.404)"/><path class="b" d="M722.888,424.381h-1.241l1.1-1.1a.109.109,0,0,0,0-.152.107.107,0,0,0-.152,0l-1.1,1.1v-1.243a.107.107,0,0,0-.107-.107.109.109,0,0,0-.107.107v1.243l-1.1-1.11a.107.107,0,0,0-.152,0,.109.109,0,0,0,0,.152l1.1,1.1h-1.243a.109.109,0,0,0-.107.107.107.107,0,0,0,.107.107h1.243l-1.1,1.1a.109.109,0,0,0,0,.152.111.111,0,0,0,.152,0l1.1-1.1v1.241a.107.107,0,0,0,.214,0v-1.241l1.1,1.1a.112.112,0,0,0,.152,0,.109.109,0,0,0,0-.152l-1.1-1.1h1.241a.1.1,0,1,0,0-.208Z" transform="translate(-569.102 -342.404)"/><path class="b" d="M743.888,424.381h-1.241l1.1-1.1a.109.109,0,0,0,0-.152.107.107,0,0,0-.152,0l-1.1,1.1v-1.243a.107.107,0,0,0-.107-.107.109.109,0,0,0-.107.107v1.243l-1.1-1.11a.107.107,0,0,0-.152,0,.109.109,0,0,0,0,.152l1.1,1.1h-1.243a.109.109,0,0,0-.107.107.107.107,0,0,0,.107.107h1.243l-1.1,1.1a.109.109,0,0,0,0,.152.111.111,0,0,0,.152,0l1.1-1.1v1.241a.107.107,0,0,0,.214,0v-1.241l1.1,1.1a.111.111,0,0,0,.152,0,.109.109,0,0,0,0-.152l-1.1-1.1h1.241a.1.1,0,1,0,0-.208Z" transform="translate(-585.6 -342.404)"/><path class="b" d="M764.888,424.381h-1.241l1.1-1.1a.109.109,0,0,0,0-.152.107.107,0,0,0-.152,0l-1.1,1.1v-1.243a.107.107,0,0,0-.107-.107.109.109,0,0,0-.107.107v1.243l-1.1-1.11a.107.107,0,0,0-.152,0,.109.109,0,0,0,0,.152l1.1,1.1h-1.243a.109.109,0,0,0-.107.107.107.107,0,0,0,.107.107h1.243l-1.1,1.1a.109.109,0,0,0,0,.152.112.112,0,0,0,.152,0l1.1-1.1v1.241a.107.107,0,0,0,.214,0v-1.241l1.1,1.1a.111.111,0,0,0,.152,0,.109.109,0,0,0,0-.152l-1.1-1.1h1.241a.1.1,0,1,0,0-.208Z" transform="translate(-602.098 -342.404)"/><path class="j" d="M817.992,485.4a3.844,3.844,0,0,0-.1-.77,2.5,2.5,0,0,0-1.344-1.82,11.289,11.289,0,0,1-2.131-.9c-.129-2.3.4-4.65-.176-6.877a17.489,17.489,0,0,1-.662-2.429c-.118-1.038.165-2.144-.249-3.1a3.059,3.059,0,0,0-1.811-1.565,9.652,9.652,0,0,0-2.416-.429c-1.029-.084-4.36-.478-5.522.442h0a1.208,1.208,0,0,0-.214.214h0a.849.849,0,0,0-.069.112l-.011.017a.859.859,0,0,0-.058.139h0a1.082,1.082,0,0,0-.036.161v.386c.015.193.043.386.043.577a1.244,1.244,0,0,1-.026.283,1.978,1.978,0,0,1-.356.695h0l-.039.056c-.023.034-.047.066-.069.1s-.038.06-.056.09-.034.049-.049.077a1.064,1.064,0,0,0-.056.109c0,.021-.024.041-.032.062a1.06,1.06,0,0,0-.064.18,1.2,1.2,0,0,0-.013.57,2.121,2.121,0,0,0,.294.675c.054.088.111.174.172.259l.15.2a4.637,4.637,0,0,0-.045.6A4.435,4.435,0,0,0,804.743,477a13.121,13.121,0,0,1-.027,2.721c-.019.189-.043.379-.068.568s-.045.313-.071.469a2.175,2.175,0,0,1-.937-.071,4.413,4.413,0,0,0-.429-.165c-.624-.156-1.26.465-1.878.277a.253.253,0,0,1-.028.086.84.84,0,0,0-.429-.127,1.563,1.563,0,0,1-.93-.534l-.817-.77a.9.9,0,0,1-.141-.159,1.111,1.111,0,0,1-.1-.264,3.039,3.039,0,0,0-.791-1.134.536.536,0,0,0-.234-.169.363.363,0,0,0-.107,0,.931.931,0,0,0-.071-.086,2.031,2.031,0,0,0-.178-.18c-.39-.36-.429-.669-.767-1.072a10.281,10.281,0,0,1-.8-1.211c-.028-.225-.067-.457-.114-.69a8.879,8.879,0,0,0-.469-1.565l-.429-.95-.049.049c-.311-.463-.643-.716-.941-.656-.5.1-.746,1.072-.667,2.339l.172,1.286a.4.4,0,0,0,.023.1,2.389,2.389,0,0,0-.047.463c0,.18.167.313.255.474a1.339,1.339,0,0,1,.214.731c-.011.092-.039.18-.043.27a1.04,1.04,0,0,0,.2.557l1.072,1.8.214.377.013.017a.916.916,0,0,0,.287.33,3.931,3.931,0,0,0,.354,1.3c.036.081.077.159.12.236a7.579,7.579,0,0,0,1.012,1.314l.51.572c.5.562,1.008,1.125,1.554,1.644a2.082,2.082,0,0,0,.695.487.786.786,0,0,0,.78-.114v.8a.448.448,0,0,1,.339.705,17.68,17.68,0,0,1-1.586,3.357,7.146,7.146,0,0,1,1.329,1.014,5.985,5.985,0,0,1,.692.937c.019.159.034.315.043.472.159,2.555-.83,5.091-1.715,7.527a5.863,5.863,0,0,0-.512,2.131,4.186,4.186,0,0,0-.48.345,3.18,3.18,0,0,1,.088,1.359,2.41,2.41,0,0,1-.178.857,6.018,6.018,0,0,1-.309.551,8.181,8.181,0,0,0-.789,3.263c-.067.675.2,1.5-.112,2.105a8.613,8.613,0,0,0-1.072,3.3,3.312,3.312,0,0,1-.1.77c-.067.214-.184.4-.244.607a2.6,2.6,0,0,0-.043.857,8.2,8.2,0,0,1-.45,3.025,4.112,4.112,0,0,0-.354,2.371,3.341,3.341,0,0,0-.907,1.992,3.133,3.133,0,0,1-.069.568,2.768,2.768,0,0,1-.257.547,4.784,4.784,0,0,0-.583,2.572,7.155,7.155,0,0,0-1.156,3.018c-.191,1.07-.274,2.159-.519,3.216a29.977,29.977,0,0,0-1.031,4.242,2.988,2.988,0,0,0-1.128,2.116,9.421,9.421,0,0,1-.5,2.416c-.176.39-.429.74-.6,1.138a5.224,5.224,0,0,0-.257.98,3.823,3.823,0,0,0-.066,1.608,2.424,2.424,0,0,1-.628.478c.034-.133.062-.266.086-.4-.553.5-1.556.326-2,.928a.9.9,0,0,0,.214,1.241,1.718,1.718,0,0,0,.444.191,7.091,7.091,0,0,0,3.276.506.979.979,0,0,0,.371-.118,1.194,1.194,0,0,0,.345-.4q.248-.392.493-.785a10.181,10.181,0,0,0,1.2.281c.041.343.071.686.086,1.029.214.043.5.056.6-.144a.52.52,0,0,0,.036-.238c0-.152.021-.354.034-.56h.043a4.073,4.073,0,0,0,1.9-.384c-.229-1.9.527-3.756,1.183-5.552.692-1.891,1.286-3.816,1.884-5.741.429-1.355.9-2.667,1.323-4.024q.793-2.573,1.593-5.145c.232-.755.465-1.5.731-2.251a35.061,35.061,0,0,1,1.987-4.423c.214-.405.429-.806.6-1.226.214-.512.367-1.048.538-1.578a24.452,24.452,0,0,1,1.346-3.169c.015-.028.026-.054.041-.079.174.71.347,1.43.463,2.144a8.144,8.144,0,0,1,.036,2.65,8.748,8.748,0,0,0-.274,1.8,11.1,11.1,0,0,0,.7,2.407,9.164,9.164,0,0,1,.24,1.844c.06.965.583,2.047.214,2.941-1.147,2.832-.592,6.03-1.245,9-.337,1.526-1.368,2.961-1.286,4.521q.086,1.661.292,3.314a3.154,3.154,0,0,0,.268,1.005,3.7,3.7,0,0,0,.294.48c-.094.036-.174.133-.242.337a1.323,1.323,0,0,0,.476,1.5,2.086,2.086,0,0,0,.62.214,3.265,3.265,0,0,0,.9.124,2.089,2.089,0,0,0,.281-.034,10.2,10.2,0,0,0,1.014.365,2.2,2.2,0,0,0,.028.264.328.328,0,0,0,.111.242.335.335,0,0,0,.172.03H810.1v-.292a.958.958,0,0,0,.74-.24,1.145,1.145,0,0,0,.214-.446q.476-1.614.945-3.231a10.329,10.329,0,0,0,.461-3.687c-.414-3.951.5-7.915.2-11.876a28.447,28.447,0,0,1,.364-7.126c.1-.532.214-1.072.257-1.6.094-1-.021-2.009.049-3,.024-.347.071-.692.114-1.038a49.819,49.819,0,0,0,.461-6.463,20.391,20.391,0,0,0-.133-2.144,1.225,1.225,0,0,0,.585-.343,1.458,1.458,0,0,0,.139-.915,6.637,6.637,0,0,1,.577-2.191,26,26,0,0,0,.81-3.014,10.519,10.519,0,0,0,.36-2.519q0-.129-.013-.257a.664.664,0,0,0,.2-.214,1.242,1.242,0,0,0,.1-.4c.077-.547.156-1.1.234-1.644q.086-.59.169-1.177l.682-4.757c.058-.414.118-.825.176-1.237l.178-1.231c.019-.146.041-.292.056-.429C818.548,487.56,818.048,486.394,817.992,485.4ZM812.3,503.21a3.918,3.918,0,0,1-.429-1.863h-.024a.957.957,0,0,0-.028-.6c-.066-.156-.182-.289-.253-.446a1.636,1.636,0,0,1-.116-.6,16.373,16.373,0,0,1,.307-3.889c.028-.15.058-.3.086-.452a1.119,1.119,0,0,0,.245-.191,1.741,1.741,0,0,0,.276-.429c.242-.487.463-.982.667-1.486.067-.163.163-.352.328-.392a9.411,9.411,0,0,1-.416,3.666,2.323,2.323,0,0,0-.214.579c-.047.319.086.643.039.96-.024.165-.094.317-.122.48a.469.469,0,0,0,.124.454.378.378,0,0,0,.092.047c-.013.086-.024.174-.032.257-.017.176-.026.341-.036.444a13.838,13.838,0,0,0-.058,1.578c0,.568.021,1.136.013,1.715a1.166,1.166,0,0,1-.082.487.845.845,0,0,1-.163.214A5.574,5.574,0,0,0,812.3,503.21Z" transform="translate(-620.689 -377.343)"/><ellipse class="k" cx="1.209" cy="3.424" rx="1.209" ry="3.424" transform="matrix(0.98, -0.201, 0.201, 0.98, 172.136, 94.527)"/><path class="l" d="M878.155,836.55a1.3,1.3,0,0,0,.476,1.486,2.118,2.118,0,0,0,.615.214,3.245,3.245,0,0,0,.894.122c.371-.017.727-.163,1.1-.214a.172.172,0,0,1,.127.017.183.183,0,0,1,.047.15,5.639,5.639,0,0,0,.047.63.324.324,0,0,0,.111.242.334.334,0,0,0,.172.03H882.9a11.335,11.335,0,0,0-.332-3.031.678.678,0,0,0-.086-.214.709.709,0,0,0-.371-.214,2.073,2.073,0,0,0-.9-.156,2.629,2.629,0,0,0-1.008.493,1.534,1.534,0,0,1-1.143.276C878.678,836.277,878.355,835.954,878.155,836.55Z" transform="translate(-693.473 -666.653)"/><path class="k" d="M793.546,834a3.217,3.217,0,0,1-1.173.8l-.2.094a.137.137,0,0,0-.066.053.116.116,0,0,0,.021.1,1.387,1.387,0,0,0,1.573.572.835.835,0,0,0,.345-.18,1.132,1.132,0,0,0,.266-.69,1.413,1.413,0,0,0-.032-.791C793.985,833.277,793.876,833.582,793.546,834Z" transform="translate(-625.923 -665.039)"/><path class="l" d="M793.19,837.089a.521.521,0,0,1-.036.238c-.1.2-.382.187-.6.144a14.412,14.412,0,0,0-.264-2.165c-.416-.019-.716.375-.939.729l-.574.911a1.189,1.189,0,0,1-.343.4,1.02,1.02,0,0,1-.371.118,7.03,7.03,0,0,1-3.265-.506,1.733,1.733,0,0,1-.444-.189.907.907,0,0,1-.214-1.239c.444-.6,1.441-.429,1.994-.926a4.985,4.985,0,0,1-.283,1.023c.74-.111,1.237-.789,1.833-1.241a1.127,1.127,0,0,1,.523-.249,1.152,1.152,0,0,1,.429.045,5.029,5.029,0,0,1,1.886.928,2.034,2.034,0,0,1,.675.7A5.2,5.2,0,0,1,793.19,837.089Z" transform="translate(-621.112 -665.492)"/><circle class="k" cx="4.429" cy="4.429" r="4.429" transform="translate(182.395 92.008)"/><path class="l" d="M912.26,614.195a10.5,10.5,0,0,1-.358,2.506,25.857,25.857,0,0,1-.81,3,6.6,6.6,0,0,0-.572,2.187,1.454,1.454,0,0,1-.141.913,1.333,1.333,0,0,1-.626.358.782.782,0,0,0-.527.469,3.312,3.312,0,0,1-.446-.982q-.577-1.767-1.072-3.552a.461.461,0,0,1,.03-.429.533.533,0,0,1,.187-.1,1.926,1.926,0,0,0,.594-.382.867.867,0,0,0,.2-.255,1.154,1.154,0,0,0,.084-.484c0-.568,0-1.134-.015-1.7a14.215,14.215,0,0,1,.06-1.571c0-.1.019-.268.036-.444.032-.337.1-.727.279-.857.272-.182,1.087.062,1.4.105.532.073,1.072.159,1.591.259A4.245,4.245,0,0,1,912.26,614.195Z" transform="translate(-716.71 -491.608)"/><path class="l" d="M827.9,504.2c-.172.343-.583.508-.9.725l-1.087.746a.724.724,0,0,1-.538.184.707.707,0,0,1-.4-.375.076.076,0,0,0,0-.017l-.225-.377-1.072-1.8a1.023,1.023,0,0,1-.2-.553c0-.092.032-.178.041-.27a1.3,1.3,0,0,0-.214-.729c-.086-.161-.257-.294-.253-.474a1.714,1.714,0,0,1,.12-.692,1.4,1.4,0,0,1,.469-.5c.1-.073.2-.141.311-.214a.613.613,0,0,1,.186-.086c.178-.036.354.112.534.118.774.519,1.072,1.5,1.681,2.208.343.4.377.712.765,1.072.062.056.122.116.18.178a1.248,1.248,0,0,1,.193.279C827.557,503.808,827.983,504.024,827.9,504.2Z" transform="translate(-650.229 -402.805)"/><path class="k" d="M873.813,506.055a3.99,3.99,0,0,1,.476,2.159,1.348,1.348,0,0,1-.187.568,1.836,1.836,0,0,1-1.52.587.9.9,0,0,0-.66.214.6.6,0,0,0,.041.733,1.656,1.656,0,0,0,.656.429,5.807,5.807,0,0,0,2.823.626c.45-.043.887-.174,1.335-.24a14.036,14.036,0,0,1,1.471-.081c.583-.021,1.164-.079,1.745-.137l1.539-.152a.343.343,0,0,0,.229-.084c.114-.133-.032-.328-.174-.429-.817-.6-1.857-1.02-2.322-1.929a11.327,11.327,0,0,1-.44-1.4,11.776,11.776,0,0,1-.51-1.353,8.956,8.956,0,0,1-.071-1.248,1.675,1.675,0,0,0-.429-1.141,1.788,1.788,0,0,0-1.166-.375,3.775,3.775,0,0,0-2.843.922c-.2.2-.362.429-.564.6s-.476.227-.343.459.394.375.536.579A4.928,4.928,0,0,1,873.813,506.055Z" transform="translate(-688.545 -405.187)"/><path class="l" d="M865.536,526.894a24.35,24.35,0,0,1-1.312,4.83,18.187,18.187,0,0,0-.772,2.165c-.165.665-.133,1.376-.285,2.043-.189.83-.377,1.661-.529,2.5a16.371,16.371,0,0,0-.3,3.88,1.622,1.622,0,0,0,.116.6c.071.154.184.287.251.446a1.071,1.071,0,0,1-.06.857,2.48,2.48,0,0,1-.442.669c-2,.6-4.135.4-6.217.527a25,25,0,0,1-5.75.182,4.558,4.558,0,0,1,.45-2.592c.89-2.429,1.874-4.958,1.715-7.5a7.784,7.784,0,0,0-.1-.885,11.739,11.739,0,0,1,.57-5.417,9.293,9.293,0,0,0,.244-3.383,6.168,6.168,0,0,1-.015-1.108,1.949,1.949,0,0,1,.4-1.035c0-.015.019-.03.03-.045a.294.294,0,0,1,.161,0h0a.137.137,0,0,0,.107,0l.024-.015a.054.054,0,0,1,.062,0c.049.03.077.133.184.152a4.281,4.281,0,0,0,.478.045,2.568,2.568,0,0,1,.57.081h.026a1.674,1.674,0,0,0,.832-.071,2.208,2.208,0,0,0,.51-.2c.047-.051.343-.1.4-.135.2-.118.152-.671.193-.9a2.464,2.464,0,0,1,.161-.664,1.132,1.132,0,0,1,.917-.534,4.881,4.881,0,0,1,1.1.1c.8.114,1.619.094,2.4.279a1.79,1.79,0,0,0,1.188.051c.1.024.114.109.114.214a1.371,1.371,0,0,1-.06.294c-.137.592.328,1.136.757,1.565a2.429,2.429,0,0,0,.632.5c.214.1.429.139.643.247a1.171,1.171,0,0,1,.429.392,1.637,1.637,0,0,1,.245.624A3.729,3.729,0,0,1,865.536,526.894Z" transform="translate(-671.536 -419.79)"/><path class="m" d="M872.929,535a24.352,24.352,0,0,1-1.312,4.83,18.184,18.184,0,0,0-.772,2.165c-.165.665-.133,1.376-.285,2.043-.189.83-.377,1.661-.53,2.5-.045.026-.092.049-.139.071a3.287,3.287,0,0,1-.84.27,5.144,5.144,0,0,1-1.569-.051l-3.059-.409a6.163,6.163,0,0,1-3.43-1.192,7.317,7.317,0,0,1-1.2-1.634,7.785,7.785,0,0,0-.1-.885,11.736,11.736,0,0,1,.57-5.417,9.3,9.3,0,0,0,.244-3.383,6.178,6.178,0,0,1-.015-1.108,1.949,1.949,0,0,1,.4-1.035,1.523,1.523,0,0,1,.191-.043h0a.951.951,0,0,1,.131-.017h.062a.934.934,0,0,1,.214.026,3.877,3.877,0,0,1,.429.165h.026a1.64,1.64,0,0,0,.57.081c.283,0,.574-.045.858-.064a1.583,1.583,0,0,1,1.016.182,6.1,6.1,0,0,1,.566.517,2.432,2.432,0,0,0,.714.388,7.587,7.587,0,0,0,5.707-.12,1.117,1.117,0,0,1,.572-.146,1.074,1.074,0,0,1,.412.176c.129.075.255.148.386.214a1.637,1.637,0,0,1,.244.624A3.728,3.728,0,0,1,872.929,535Z" transform="translate(-678.929 -427.895)"/><path class="b" d="M868.011,532.072A11.437,11.437,0,0,1,865.567,531a1.1,1.1,0,0,0-.412-.176,1.152,1.152,0,0,0-.575.146,7.582,7.582,0,0,1-5.7.12,2.48,2.48,0,0,1-.714-.388,6.4,6.4,0,0,0-.566-.517c-.705-.457-1.681.079-2.47-.214a4.359,4.359,0,0,0-.429-.165c-.624-.156-1.258.465-1.871.276a10.435,10.435,0,0,0-.5,1.912,20.815,20.815,0,0,0-.139,2.255c0,.452-.022.9,0,1.357a.445.445,0,0,1,.339.7,17.572,17.572,0,0,1-1.582,3.346,7.268,7.268,0,0,1,1.325,1.012c.75.793,1.119,1.906,1.929,2.639a6.2,6.2,0,0,0,3.43,1.19l3.059.409a5.228,5.228,0,0,0,1.571.054,3.309,3.309,0,0,0,.838-.272,1.5,1.5,0,0,0,.467-.309,1.715,1.715,0,0,0,.277-.429c.242-.484.463-.98.667-1.481.071-.178.178-.386.371-.4,1.136-1.025,2.208-2.075,3.344-3.1a7.412,7.412,0,0,0,1.22-1.286c.564-.834.051-2.015,0-3.023a3.821,3.821,0,0,0-.1-.765A2.456,2.456,0,0,0,868.011,532.072Z" transform="translate(-672.144 -426.388)"/><path class="m" d="M834.94,517.182c-.171.343-.583.508-.9.725l-1.087.746a.724.724,0,0,1-.538.184.707.707,0,0,1-.4-.375v-.154a1.438,1.438,0,0,1,.069-.512,1.6,1.6,0,0,1,.48-.617,3.932,3.932,0,0,1,1.408-.857.483.483,0,0,1,.257-.026.341.341,0,0,1,.094.041,1.246,1.246,0,0,1,.193.279C834.6,516.789,835.028,517.006,834.94,517.182Z" transform="translate(-657.274 -415.786)"/><path class="b" d="M838.474,519.949a1.561,1.561,0,0,1-.928-.532l-.812-.755a.754.754,0,0,1-.141-.159,1.112,1.112,0,0,1-.1-.264,3.024,3.024,0,0,0-.789-1.132.515.515,0,0,0-.234-.167.47.47,0,0,0-.259.026,3.92,3.92,0,0,0-1.408.858,1.6,1.6,0,0,0-.48.617,1.424,1.424,0,0,0-.069.512,3.936,3.936,0,0,0,.373,1.638c.036.079.077.159.12.236a7.427,7.427,0,0,0,1.008,1.31l.51.57c.5.562,1,1.123,1.548,1.64a2.044,2.044,0,0,0,.695.484.776.776,0,0,0,.8-.129,1.153,1.153,0,0,0,.227-.407,8.022,8.022,0,0,0,.662-2.673,10.119,10.119,0,0,0-.047-1.108C839.115,520.125,838.838,519.973,838.474,519.949Z" transform="translate(-658.248 -416.294)"/><path class="n" d="M823.9,634.8a49.534,49.534,0,0,1-.459,6.446c-.043.345-.09.69-.114,1.035-.071,1,.045,2.007-.049,3-.049.538-.161,1.072-.255,1.6a28.4,28.4,0,0,0-.364,7.107c.3,3.951-.611,7.9-.2,11.844a9.578,9.578,0,0,1-.127,2.292A9.709,9.709,0,0,1,822,669.5q-.469,1.61-.943,3.216a1.116,1.116,0,0,1-.214.446,1.016,1.016,0,0,1-.8.238,9.273,9.273,0,0,1-3.524-1.093,1.228,1.228,0,0,1-.354-.214c-.234-.242-.214-.624-.317-.943a8.97,8.97,0,0,0-.54-.948,3.1,3.1,0,0,1-.234-.975q-.214-1.646-.292-3.306c-.081-1.556.948-2.988,1.286-4.5.643-2.976.1-6.165,1.241-8.989.36-.892-.163-1.972-.214-2.933a9.3,9.3,0,0,0-.24-1.839,11.4,11.4,0,0,1-.7-2.4,8.817,8.817,0,0,1,.272-1.79,8.045,8.045,0,0,0-.036-2.643c-.114-.72-.287-1.441-.461-2.144l-.039.079a24.209,24.209,0,0,0-1.344,3.162c-.171.525-.322,1.061-.536,1.571-.176.429-.392.821-.6,1.224a35.144,35.144,0,0,0-1.983,4.405c-.266.742-.5,1.5-.731,2.244l-1.589,5.145c-.429,1.353-.9,2.66-1.318,4.011-.594,1.929-1.188,3.842-1.878,5.728-.643,1.79-1.408,3.644-1.179,5.535a4.073,4.073,0,0,1-1.893.384,11.083,11.083,0,0,1-3.216-.78,2.5,2.5,0,0,1-1.11-.66,2.627,2.627,0,0,1-.214-2.172,5.247,5.247,0,0,1,.257-.978c.163-.394.429-.744.6-1.134a9.515,9.515,0,0,0,.491-2.407,2.971,2.971,0,0,1,1.123-2.112,30.492,30.492,0,0,1,1.029-4.232c.244-1.057.326-2.144.519-3.216a7.064,7.064,0,0,1,1.151-3.012,4.774,4.774,0,0,1,.583-2.572,2.818,2.818,0,0,0,.255-.547,3.147,3.147,0,0,0,.069-.566,3.346,3.346,0,0,1,.9-1.987,4.032,4.032,0,0,1,.352-2.358,8.192,8.192,0,0,0,.45-3.016,2.643,2.643,0,0,1,.041-.857c.06-.214.178-.4.246-.6a3.432,3.432,0,0,0,.1-.77,8.9,8.9,0,0,1,1.072-3.288c.309-.6.047-1.426.111-2.1a8.114,8.114,0,0,1,.789-3.252c.1-.184.214-.36.307-.551a2.386,2.386,0,0,0,.178-.858,3.156,3.156,0,0,0-.088-1.355,6.947,6.947,0,0,1,4.2-1.286,26.206,26.206,0,0,0,4.461-.247c.429-.1.857-.229,1.31-.294a8.473,8.473,0,0,1,3.083.315,3.673,3.673,0,0,0,.429,1.859A19.954,19.954,0,0,1,823.9,634.8Z" transform="translate(-630.686 -501.13)"/><path class="m" d="M883.8,673.29l-2.463,5.54c-.114-.72-.287-1.441-.461-2.144l-.039.079v-.116l1.342-2.952Z" transform="translate(-695.634 -539.132)"/><path class="m" d="M916.646,614.195a.926.926,0,0,1-.489.182,2.378,2.378,0,0,1-.8-.109l-1.929-.482a.949.949,0,0,1-.176-.062c.032-.337.1-.727.279-.858.272-.182,1.087.062,1.4.105.532.073,1.072.159,1.591.259A4.25,4.25,0,0,1,916.646,614.195Z" transform="translate(-721.096 -491.608)"/><path class="b" d="M917.544,557.3c.041.178.1.354.133.534a4.077,4.077,0,0,1-.045,1.327l-.176,1.226-.176,1.233-.68,4.744-.167,1.175-.236,1.64a1.178,1.178,0,0,1-.1.395.821.821,0,0,1-.671.4,2.429,2.429,0,0,1-.8-.109l-1.929-.484a.606.606,0,0,1-.236-.1.465.465,0,0,1-.124-.452c.028-.163.1-.315.122-.478.047-.317-.086-.643-.039-.958a2.384,2.384,0,0,1,.214-.577c.643-1.421.27-3.081.489-4.624a7.01,7.01,0,0,1,1.488-3.31,9.508,9.508,0,0,1,1.642-1.612,3.307,3.307,0,0,1,.924-.643C917.561,556.545,917.48,557.032,917.544,557.3Z" transform="translate(-720.363 -447.471)"/><path class="n" d="M861.26,469.682c-.141.45.079.945-.021,1.4-.109.506-.585.858-.72,1.366-.214.774.442,1.479.922,2.122,1.779,2.388,1.546,5.694.937,8.607a44.455,44.455,0,0,1-2.026,6.86,5.256,5.256,0,0,1-1.091,1.914,5.643,5.643,0,0,1,3.023-.294c1.252.347,2.332,1.563,3.6,1.286.763-.169,1.3-.847,1.985-1.222,1.286-.692,2.836-.257,4.27-.034a1.677,1.677,0,0,0,.933-.047,1.551,1.551,0,0,0,.566-.521,5.287,5.287,0,0,0,1.1-2.851,3.657,3.657,0,0,0-1.053-2.815,6.024,6.024,0,0,1-.9-.857,2.662,2.662,0,0,1-.354-1.3c-.169-2.358.405-4.766-.187-7.047a17.4,17.4,0,0,1-.658-2.422c-.118-1.035.163-2.144-.249-3.091a3.032,3.032,0,0,0-1.807-1.561,9.9,9.9,0,0,0-2.41-.429C865.946,468.653,861.751,468.149,861.26,469.682Z" transform="translate(-678.68 -378.317)"/><g class="o" transform="translate(180.58 90.874)"><path d="M866.415,494.861a44.368,44.368,0,0,1-2.015,6.832c.148-.294.272-.6.39-.909a44.209,44.209,0,0,0,2.026-6.86c.611-2.916.845-6.217-.935-8.607a3.362,3.362,0,0,1-.96-1.856,2.282,2.282,0,0,0-.365.673c-.214.774.442,1.479.922,2.122C867.258,488.641,867.024,491.947,866.415,494.861Z" transform="translate(-863.298 -480.87)"/><path d="M868.4,473.059a2.086,2.086,0,0,0,.377-.722,3.677,3.677,0,0,0-.026-.956,1.031,1.031,0,0,0-.356.491A4.239,4.239,0,0,0,868.4,473.059Z" transform="translate(-866.399 -471.38)"/><path d="M874.041,566.532a1.543,1.543,0,0,1-.566.519,1.637,1.637,0,0,1-.932.047c-1.434-.214-3-.656-4.27.036-.688.373-1.222,1.05-1.987,1.222-1.267.283-2.347-.933-3.6-1.286a5.024,5.024,0,0,0-2.716.214,3.748,3.748,0,0,1-.71,1.025,5.643,5.643,0,0,1,3.023-.294c1.252.347,2.332,1.563,3.6,1.286.763-.169,1.3-.847,1.985-1.222,1.286-.692,2.836-.257,4.27-.034a1.677,1.677,0,0,0,.933-.047,1.551,1.551,0,0,0,.566-.521,5.762,5.762,0,0,0,.887-1.7A6.241,6.241,0,0,1,874.041,566.532Z" transform="translate(-859.26 -545.543)"/></g></g></svg>