<svg xmlns="http://www.w3.org/2000/svg" width="311.434" height="194.853" viewBox="0 0 311.434 194.853"><defs><style>.a{fill:#f2f2f2}.b{fill:#3f3d56}.c{fill:#7b65e4}.d{fill:#2f2e41}.e{fill:#575a89}.f{opacity:.1}.g{fill:#fbbebe}.h{fill:#f1f1f1}</style></defs><g transform="translate(0.001 0)"><path d="M675.325,173.822c-11.428-44.936-50.914-77.373-97.261-78.674-24.5-.688-50.287,7.439-69.06,35.876-33.558,50.835,2.062,85.964,26.9,102.656a155.39,155.39,0,0,1,32.118,28.868c16.774,19.905,49.044,44.64,87.475,5.884C683.35,240.341,682.938,203.753,675.325,173.822Z" class="a" transform="translate(-368.335 -95.108)"/><path d="M186.638,501.493c-.308-.456-.611-.924-.9-1.391l.467-.289c.285.461.584.923.888,1.373Z" class="b" transform="translate(-143.747 -388.712)"/><path d="M168,332.794c-.509-1-.983-2.032-1.407-3.069l.508-.208c.419,1.023.885,2.042,1.388,3.027Zm-2.554-6.243c-.337-1.069-.633-2.165-.88-3.259l.536-.121c.244,1.079.536,2.16.868,3.215Zm-1.487-6.579c-.156-1.108-.267-2.238-.332-3.358l.548-.032c.064,1.106.174,2.221.327,3.314Zm.16-6.721-.549-.013c.026-1.122.1-2.255.217-3.367l.546.058c-.116,1.1-.188,2.215-.214,3.323Zm.7-6.616-.539-.1c.209-1.1.467-2.207.766-3.287l.529.147c-.3,1.065-.55,2.156-.756,3.242Zm1.778-6.411-.515-.19c.388-1.052.826-2.1,1.3-3.117l.5.232c-.468,1-.9,2.038-1.283,3.075Zm75.193-1.7c-.429-1.018-.907-2.031-1.42-3.012l.487-.254c.52.994,1,2.021,1.439,3.053Zm-72.378-4.336-.477-.272c.556-.973,1.16-1.935,1.795-2.86l.452.311C170.556,292.283,169.96,293.232,169.412,294.191Zm69.3-1.56c-.591-.934-1.229-1.855-1.9-2.738l.438-.331c.675.895,1.322,1.828,1.921,2.775ZM173.179,288.7l-.426-.347c.708-.869,1.461-1.719,2.238-2.527l.4.38C174.621,287.008,173.878,287.846,173.179,288.7Zm61.52-1.384c-.736-.825-1.516-1.63-2.317-2.392l.378-.4c.812.772,1.6,1.588,2.348,2.424Zm-56.907-3.414-.363-.412c.84-.742,1.721-1.457,2.62-2.128l.328.44C179.49,282.468,178.62,283.175,177.791,283.906Zm52.085-1.173c-.861-.694-1.762-1.361-2.677-1.982l.308-.454c.927.629,1.84,1.305,2.713,2.009Zm-46.753-2.806-.291-.465c.951-.595,1.937-1.156,2.932-1.67l.252.488C185.034,278.786,184.061,279.34,183.123,279.927ZM224.369,279c-.965-.544-1.962-1.054-2.966-1.516l.229-.5c1.017.468,2.028.985,3.006,1.537Zm-35.336-2.119-.211-.507c1.035-.43,2.1-.821,3.165-1.164l.168.523C191.1,276.067,190.054,276.453,189.033,276.877Zm29.288-.662c-1.039-.377-2.107-.716-3.175-1.005l.144-.53c1.082.294,2.165.637,3.219,1.019Zm-22.957-1.371-.124-.535c1.09-.253,2.206-.463,3.316-.625l.079.543c-1.095.16-2.2.368-3.271.617Zm16.534-.373c-1.085-.2-2.194-.357-3.3-.468l.055-.546c1.117.112,2.242.271,3.342.474Zm-9.951-.589-.035-.548c1.117-.071,2.255-.1,3.374-.075l-.01.549c-1.1-.02-2.227,0-3.329.074Z" class="b" transform="translate(-127.665 -224.347)"/><path d="M453.267,377.945c-.147-.522-.307-1.049-.475-1.565l.522-.17c.171.523.333,1.057.482,1.587Z" class="b" transform="translate(-337.488 -299.041)"/><path d="M440.876,266.153h-.549c0-.549.01-1.107.029-1.657l.549.019C440.886,265.059,440.876,265.61,440.876,266.153Z" class="b" transform="translate(-328.445 -217.995)"/><path d="M441.836,142.156l-.546-.058c.118-1.106.277-2.22.473-3.313l.54.1C442.109,139.962,441.952,141.064,441.836,142.156ZM443,135.65l-.532-.136c.275-1.078.592-2.158.944-3.211l.521.174c-.348,1.041-.661,2.108-.933,3.173Zm87.563-5.793c-.41-1.019-.863-2.035-1.346-3.021l.493-.241c.488,1,.946,2.026,1.362,3.057Zm-85.47-.481-.507-.211c.427-1.026.9-2.05,1.4-3.044l.49.247c-.495.983-.959,1.995-1.381,3.008Zm82.564-5.457c-.552-.949-1.146-1.89-1.765-2.8l.454-.309c.627.919,1.227,1.871,1.786,2.831Zm-79.59-.452-.471-.281c.569-.953,1.181-1.9,1.818-2.812l.45.314c-.63.9-1.235,1.837-1.8,2.779Zm75.865-5.011c-.683-.862-1.4-1.709-2.145-2.518l.4-.371c.75.819,1.48,1.676,2.171,2.548Zm-72.077-.411-.427-.346c.7-.864,1.44-1.713,2.2-2.524l.4.375C453.284,116.352,452.553,117.191,451.861,118.045Zm67.612-4.467c-.8-.756-1.633-1.492-2.482-2.188l.348-.424c.859.7,1.7,1.449,2.511,2.214Zm-63.092-.36-.373-.4c.815-.755,1.668-1.49,2.535-2.185l.343.428c-.857.687-1.7,1.414-2.506,2.159Zm57.979-3.834c-.9-.635-1.828-1.244-2.768-1.813l.284-.47c.951.575,1.893,1.192,2.8,1.834Zm-52.821-.3-.312-.452c.914-.631,1.863-1.237,2.82-1.8l.279.473c-.946.558-1.883,1.157-2.786,1.78Zm47.162-3.122c-.979-.5-1.988-.97-3-1.4l.214-.506c1.023.433,2.044.909,3.035,1.415Zm-41.47-.234-.244-.492c.995-.494,2.02-.958,3.047-1.379l.208.508c-1.015.416-2.028.874-3.011,1.362Zm35.379-2.342c-1.039-.354-2.1-.674-3.169-.952l.139-.531c1.077.281,2.156.606,3.207.963Zm-29.267-.162-.171-.522c1.055-.346,2.137-.658,3.216-.927l.133.533c-1.066.266-2.135.574-3.178.916Zm22.869-1.51c-1.08-.2-2.18-.364-3.272-.487l.061-.546c1.1.124,2.218.29,3.311.492Zm-16.456-.09-.094-.541c1.094-.19,2.209-.344,3.316-.456l.055.546c-1.093.11-2.2.262-3.276.45Zm9.885-.648c-1.1-.045-2.217-.051-3.308-.018l-.017-.549c1.1-.033,2.235-.027,3.347.018Z" class="b" transform="translate(-329.143 -98.938)"/><path d="M771.1,220.313c-.147-.522-.306-1.05-.471-1.568l.523-.167c.168.524.328,1.058.477,1.587Z" class="b" transform="translate(-568.074 -184.682)"/><ellipse cx="9.145" cy=".686" class="c" rx="9.145" ry=".686" transform="translate(33.425 118.224)"/><ellipse cx="9.145" cy=".686" class="c" rx="9.145" ry=".686" transform="translate(106.357 85.073)"/><ellipse cx="9.145" cy=".686" class="c" rx="9.145" ry=".686" transform="translate(196.436 50.551)"/><rect width="38.89" height=".549" class="b" transform="translate(174.459 76.484) rotate(-45)"/><rect width="46.183" height=".549" class="b" transform="translate(120.303 79.998)"/><rect width="36.53" height=".549" class="b" transform="translate(86.045 109.571) rotate(-45)"/><rect width="30.865" height=".549" class="b" transform="translate(47.371 113.149)"/><rect width="43.375" height=".549" class="b" transform="translate(8.311 147.295) rotate(-45)"/><path d="M174.433,499.933a5.076,5.076,0,1,1,5.076-5.076A5.076,5.076,0,0,1,174.433,499.933Zm0-9.6a4.527,4.527,0,1,0,4.527,4.527,4.527,4.527,0,0,0-4.527-4.527Z" class="b" transform="translate(-131.863 -381.434)"/><path d="M321.84,499.933a5.076,5.076,0,1,1,5.076-5.076A5.076,5.076,0,0,1,321.84,499.933Zm0-9.6a4.527,4.527,0,1,0,4.527,4.527,4.527,4.527,0,0,0-4.527-4.527Z" class="b" transform="translate(-238.803 -381.434)"/><path d="M440.1,379.175a5.076,5.076,0,1,1,5.076-5.076A5.076,5.076,0,0,1,440.1,379.175Zm0-9.6a4.527,4.527,0,1,0,4.527,4.527A4.527,4.527,0,0,0,440.1,369.573Z" class="b" transform="translate(-324.598 -293.828)"/><path d="M643.306,379.175a5.076,5.076,0,1,1,5.076-5.076A5.076,5.076,0,0,1,643.306,379.175Zm0-9.6a4.527,4.527,0,1,0,4.527,4.527A4.527,4.527,0,0,0,643.306,369.573Z" class="b" transform="translate(-472.019 -293.828)"/><path d="M768.228,253.421a5.076,5.076,0,1,1,5.076-5.076A5.076,5.076,0,0,1,768.228,253.421Zm0-9.6a4.527,4.527,0,1,0,4.527,4.527,4.527,4.527,0,0,0-4.527-4.527Z" class="b" transform="translate(-562.647 -202.596)"/><path d="M37.852,636.514a5.076,5.076,0,1,1,5.076-5.076A5.076,5.076,0,0,1,37.852,636.514Zm0-9.6a4.527,4.527,0,1,0,4.527,4.527,4.527,4.527,0,0,0-4.527-4.527Z" class="b" transform="translate(-32.777 -480.52)"/><path d="M163.68,399.173a9.145,9.145,0,0,0-9.145,9.145c0,5.051,9.145,21.72,9.145,21.72s9.145-16.669,9.145-21.72A9.145,9.145,0,0,0,163.68,399.173Zm0,13.946a4.8,4.8,0,1,1,4.8-4.8,4.8,4.8,0,0,1-4.8,4.8Z" class="c" transform="translate(-121.109 -315.7)"/><path d="M429.346,274.251A9.145,9.145,0,0,0,420.2,283.4c0,5.051,9.145,21.72,9.145,21.72s9.145-16.669,9.145-21.72a9.145,9.145,0,0,0-9.145-9.145Zm0,13.946a4.8,4.8,0,1,1,4.8-4.8,4.8,4.8,0,0,1-4.8,4.8Z" class="c" transform="translate(-313.844 -225.072)"/><rect width="124.506" height=".671" class="d" transform="translate(170.528 194.182)"/><path d="M970.254,138.6c-1.936,5.731-4.9,10.953-10.953,10.953s-10.612-4.913-10.953-10.953c-.435-7.717,4.764-10.985,10.953-10.953C966.612,127.681,972.552,131.794,970.254,138.6Z" class="d" transform="translate(-696.984 -118.711)"/><rect width="21.617" height="27.381" class="d" transform="translate(251.365 19.019)"/><path d="M1025.151,238.7h1.839a16.368,16.368,0,0,1,2.452,13.483c-2.043,7.763-.409,9.193-.409,9.193s2.66,8.407-.2,21.073,2.652,16.109,2.652,16.109l-5.107-10.215-2.86-26.967Z" class="e" transform="translate(-751.535 -199.279)"/><path d="M1025.151,241.146h1.839a16.368,16.368,0,0,1,2.452,13.483c-2.043,7.763-.409,9.193-.409,9.193s2.66,8.407-.2,21.073S1031.484,301,1031.484,301l-5.107-10.215-2.86-26.967Z" class="f" transform="translate(-751.535 -201.055)"/><path d="M976.336,202.517s-1.634,6.537-.817,6.537,3.677,3.473,3.677,3.473l1.839,6.742-1.43,4.9-4.9-1.021-6.129-6.742-1.839-1.839-1.634-5.925s2.043-2.452.613-4.494S976.336,202.517,976.336,202.517Z" class="g" transform="translate(-709.155 -173.007)"/><path d="M976.336,202.517s-1.634,6.537-.817,6.537,3.677,3.473,3.677,3.473l1.839,6.742-1.43,4.9-4.9-1.021-6.129-6.742-1.839-1.839-1.634-5.925s2.043-2.452.613-4.494S976.336,202.517,976.336,202.517Z" class="f" transform="translate(-709.155 -173.007)"/><path d="M789.905,229.056l-4.495-7.355s-4.852-10.735-8.325-6.853,5.26,11.756,5.26,11.756l4.495,5.925Z" class="g" transform="translate(-572.163 -181.363)"/><path d="M976.292,488.268l-3.27,23.9s.409,1.839-3.677,8.58S954.227,542.2,954.227,542.2l-3.269-6.129s3.882-19.408,10.623-23.494l-.817-29.419Z" class="g" transform="translate(-698.896 -376.631)"/><path d="M976.292,488.268l-3.27,23.9s.409,1.839-3.677,8.58S954.227,542.2,954.227,542.2l-3.269-6.129s3.882-19.408,10.623-23.494l-.817-29.419Z" class="f" transform="translate(-698.896 -376.631)"/><path d="M923.427,666.973l4.494,8.58s-3.677,10.419-2.247,11.441,3.269,10.215-.613,9.193-6.946-5.107-6.946-5.72,2.247-9.193,1.021-11.236a9.913,9.913,0,0,0-2.043-2.656l-3.064,5.107-1.021-.613,5.107-8.58a5.385,5.385,0,0,1,3.064-2.656Z" class="d" transform="translate(-671.363 -509.982)"/><path d="M923.427,666.973l4.494,8.58s-3.677,10.419-2.247,11.441,3.269,10.215-.613,9.193-6.946-5.107-6.946-5.72,2.247-9.193,1.021-11.236a9.913,9.913,0,0,0-2.043-2.656l-3.064,5.107-1.021-.613,5.107-8.58a5.385,5.385,0,0,1,3.064-2.656Z" class="f" transform="translate(-671.363 -509.982)"/><path d="M944.078,484.877s1.587,22.6-1.886,28.52v29.419l-4.7.613s-9.489-15.575-6.016-30.9-3.586-29.37-3.586-29.37Z" class="g" transform="translate(-682.161 -376.632)"/><circle cx="8.58" cy="8.58" r="8.58" class="g" transform="translate(252.166 17.355)"/><path d="M864.081,234.562l-8.58-10.828-4.9-3.269-2.044,2.656-5.72,1.634s-3.677.817-7.559,5.312-10.828,7.15-10.828,7.15l-5.72-1.021s-6.742-3.064-6.742-3.882-5.925,5.516-4.494,7.968,4.494,5.516,6.129,7.15,2.247,6.333,12.258,4.9S839.565,246,839.565,246s1.839,9.4,7.15,11.236,22.677,3.064,22.677,3.064l3.677-12.258s4.086-5.312-1.43-13.075a51.234,51.234,0,0,0-.7-7.231,4.777,4.777,0,0,0-.935-2.371c-1.43-1.226-8.989-3.269-8.989-3.269s1.226,4.086,1.839,4.29S864.9,233.54,864.081,234.562Z" class="e" transform="translate(-594.652 -186.052)"/><path d="M904.931,389.612c10.288-.715,16.278.97,18.95,2.255a6.778,6.778,0,0,1,1.393.846c.2.165.29.294.29.372,0,.613,14.1,1.839,19.2.613s-3.473-27.58-5.72-29.827-1.036-10.472-1.036-10.472-4.48-.968-5.706-.56-7.559-.613-9.806-1.839-5.107-.409-6.946-.817a1.155,1.155,0,0,0-1.442.521,3.532,3.532,0,0,1-1.4,1.412c-4.337,2.5-7.818,19.774-10.439,29.324C899.415,391.859,904.931,389.612,904.931,389.612Z" class="d" transform="translate(-662.981 -280.12)"/><path d="M964.452,693.763l.817,4.495s4.291,6.129,3.064,11.236c0,0,1.021,6.742,4.7,8.58s.613,6.129-2.86,5.925-6.742.2-7.15-.817-2.86-11.032-2.86-11.032l-.671,11.714-2.043.2.671-13.553s-1.634-3.064.613-8.172l-.567-7.84S963.839,695.806,964.452,693.763Z" class="d" transform="translate(-703.604 -529.418)"/><path d="M983.154,468.937a6.777,6.777,0,0,1,1.393.846c.108-1.931.733-13.606-.016-13.418Z" class="f" transform="translate(-722.253 -357.189)"/><path d="M941.054,144.359s-.1-.529-3.812.865-5.944,11.678-4.086,17.717a5.533,5.533,0,0,1-.854,5.416,8.948,8.948,0,0,0,3.172,13.9q.23.1.47.2l2.323,1.394a10.623,10.623,0,0,1-1.479-8.88,25.553,25.553,0,0,0,.461-13.081c-.17-.73-.363-1.482-.583-2.25-1.858-6.5-.954-5.753,5.549-12.256a41.344,41.344,0,0,0,6.968,4.181c3.252,1.394,6.039,2.787,3.716,7.433s-7.9,8.826-4.181,14.866,4.181,3.716,3.717,6.039h0l-.465,2.323,2.787-2.787-1.858,3.716s6.039,0,7.9-4.646l.929.929s3.716-6.5-3.252-12.543c0,0-2.323-1.394.929-6.039s.754-14.633-3.427-16.492S941.054,144.359,941.054,144.359Z" class="d" transform="translate(-683.86 -130.24)"/><circle cx="4.323" cy="4.323" r="4.323" class="d" transform="translate(257.994 2.591)"/><path d="M967.129,100.47a4.323,4.323,0,0,1,3.891-4.3c-.142-.014-.286-.022-.432-.022a4.323,4.323,0,0,0,0,8.647c.146,0,.29-.008.432-.022A4.324,4.324,0,0,1,967.129,100.47Z" class="d" transform="translate(-710 -95.862)"/><path d="M757.474,154.326a9.145,9.145,0,0,0-9.145,9.145c0,5.051,9.145,21.72,9.145,21.72s9.145-16.669,9.145-21.72a9.145,9.145,0,0,0-9.145-9.145Zm0,13.946a4.8,4.8,0,1,1,4.8-4.8,4.8,4.8,0,0,1-4.8,4.8Z" class="c" transform="translate(-551.893 -138.069)"/><circle cx="4.948" cy="4.948" r="4.948" class="h" transform="translate(126.911 176.518)"/><circle cx="4.948" cy="4.948" r="4.948" class="h" transform="translate(157.698 155.587)"/><circle cx="4.948" cy="4.948" r="4.948" class="h" transform="translate(119.625 136.098)"/></g></svg>